<svg xmlns="http://www.w3.org/2000/svg" xmlns:xlink="http://www.w3.org/1999/xlink" width="500" zoomAndPan="magnify" viewBox="0 0 375 374.999991" height="500" preserveAspectRatio="xMidYMid meet" version="1.0"><defs><clipPath id="f826006415"><path d="M 96 0 L 362.25 0 L 362.25 340 L 96 340 Z M 96 0 " clip-rule="nonzero"/></clipPath><clipPath id="bd19991dd2"><path d="M 37.5 16 L 345 16 L 345 375 L 37.5 375 Z M 37.5 16 " clip-rule="nonzero"/></clipPath></defs><rect x="-37.5" width="450" fill="#ffffff" y="-37.499999" height="449.999989" fill-opacity="1"/><rect x="-37.5" width="450" fill="#ffffff" y="-37.499999" height="449.999989" fill-opacity="1"/><rect x="-37.5" width="450" fill="#f6f6f6" y="-37.499999" height="449.999989" fill-opacity="1"/><g clip-path="url(#f826006415)"><path fill="#ac7040" d="M 362.25 209.914062 L 362.25 0.128906 L 138.871094 0.128906 L 134.386719 132.8125 L 159.503906 137.296875 C 159.503906 137.296875 160.886719 138.988281 163.09375 141.867188 L 137.976562 138.191406 C 135.285156 145.363281 115.546875 199.15625 114.652344 203.636719 C 113.753906 208.121094 96.707031 276.253906 96.707031 276.253906 L 134.386719 339.011719 C 134.386719 339.011719 244.253906 338.113281 247.347656 338.964844 C 246.238281 337.109375 240.261719 278.898438 241.140625 276.253906 C 242.019531 273.609375 219.609375 238.601562 219.609375 238.601562 L 190.007812 218.878906 L 191.917969 194.035156 C 192.898438 197.785156 193.160156 201.582031 192.699219 205.429688 Z M 247.421875 339.011719 C 247.421875 339.011719 247.421875 339.011719 247.347656 338.964844 C 247.277344 338.921875 247.421875 339.011719 247.421875 339.011719 Z M 247.421875 339.011719 " fill-opacity="1" fill-rule="nonzero"/></g><path fill="#f27622" d="M 342.515625 13.574219 L 151.429688 13.574219 L 151.429688 65.574219 L 342.515625 65.574219 C 342.515625 65.574219 341.617188 14.390625 342.515625 13.574219 Z M 144.253906 127.433594 C 146.050781 127.433594 351.484375 130.121094 351.484375 130.121094 L 348.792969 78.125 L 146.945312 78.125 C 147.84375 79.019531 142.460938 127.433594 144.253906 127.433594 Z M 171.402344 134.703125 C 169.738281 133.535156 167.914062 132.722656 165.9375 132.257812 C 163.957031 131.792969 161.964844 131.710938 159.953125 132.015625 C 151.316406 133.316406 134.386719 132.804688 134.386719 132.804688 L 111.960938 151.640625 C 111.960938 151.640625 102.089844 204.535156 102.988281 206.328125 C 103.886719 208.121094 105.679688 228.738281 105.679688 228.738281 C 105.679688 228.738281 94.015625 230.53125 94.914062 232.324219 C 95.8125 234.117188 97.605469 239.496094 97.605469 239.496094 L 72.488281 263.703125 L 72.488281 270.875 L 107.472656 270.875 L 118.238281 235.910156 L 123.621094 238.601562 L 128.105469 233.222656 L 134.386719 239.496094 L 139.769531 230.53125 L 144.253906 219.773438 L 146.050781 233.222656 L 146.945312 254.738281 L 151.429688 264.601562 L 146.945312 276.253906 C 146.945312 276.253906 165.785156 273.566406 164.886719 274.460938 C 163.992188 275.359375 188.210938 276.253906 188.210938 276.253906 L 207.050781 261.015625 L 228.582031 266.394531 L 241.140625 246.671875 C 241.140625 246.671875 204.359375 219.773438 204.359375 217.980469 C 204.359375 217.148438 201.085938 201.84375 197.570312 185.707031 L 349.691406 188.398438 L 349.691406 140.882812 C 349.691406 140.882812 227.683594 140.308594 177.734375 139.160156 Z M 171.402344 134.703125 " fill-opacity="1" fill-rule="nonzero"/><path fill="#d5b58e" d="M 146.050781 152.535156 C 145.152344 152.535156 119.136719 158.164062 120.929688 177.484375 C 122.722656 196.804688 127.210938 212.898438 128.105469 213.707031 C 129.003906 214.511719 137.976562 221.773438 137.976562 221.773438 L 141.214844 222.257812 C 140.683594 223.691406 140.046875 225.421875 139.417969 227.109375 L 134.386719 235.910156 L 128.105469 230.53125 L 122.722656 235.015625 L 115.546875 235.015625 C 115.546875 235.015625 105.679688 270.875 104.898438 270.875 L 104.78125 276.253906 L 137.078125 287.011719 L 149.519531 276.253906 L 154.121094 263.703125 L 148.21875 257.535156 L 147.84375 246.671875 L 146.488281 230.390625 L 146.777344 223.066406 L 148.742188 223.359375 C 148.742188 223.359375 176.550781 216.117188 176.550781 214.503906 C 176.550781 212.890625 190.007812 200.820312 183.726562 178.292969 C 183.726562 178.292969 181.933594 152.535156 146.050781 152.535156 Z M 192.976562 65.574219 L 192.699219 32.402344 L 185.519531 32.402344 L 185.519531 19.851562 L 166.683594 22.539062 L 166.683594 32.402344 L 156.8125 31.507812 L 156.8125 65.574219 Z M 332.644531 21.644531 L 271.644531 23.4375 L 269.507812 65.574219 L 334.097656 65.574219 Z M 189.351562 99.765625 L 188.210938 90.675781 L 165.785156 89.78125 L 165.785156 98.378906 C 158.878906 99.882812 145.152344 105.675781 154.121094 127.558594 L 183.726562 127.433594 L 198.976562 127.433594 C 205.964844 104.75 196.707031 100.179688 189.351562 99.765625 Z M 243.179688 100.664062 L 242.039062 91.574219 L 219.609375 90.675781 L 219.609375 99.273438 C 212.703125 100.78125 199.023438 106.570312 207.949219 128.457031 L 237.554688 128.328125 L 252.804688 128.328125 C 259.792969 105.648438 250.535156 101.074219 243.179688 100.664062 Z M 293.613281 101.066406 L 293.613281 92.46875 L 271.183594 93.367188 L 270.054688 102.457031 C 262.691406 102.867188 253.441406 107.441406 260.421875 130.121094 L 275.671875 130.121094 L 305.273438 130.25 C 314.210938 108.363281 300.519531 102.574219 293.613281 101.066406 Z M 347 83.503906 L 310.21875 83.503906 L 310.21875 94.261719 L 315.601562 94.261719 L 315.601562 129.65625 L 342.515625 130.25 L 342.515625 93.367188 L 347.894531 92.46875 Z M 319.027344 187.859375 C 319.1875 187.5 342.515625 188.398438 342.515625 188.398438 L 342.515625 152.535156 L 320.085938 154.328125 C 320.085938 154.328125 318.867188 188.21875 319.027344 187.859375 Z M 319.027344 187.859375 " fill-opacity="1" fill-rule="nonzero"/><g clip-path="url(#bd19991dd2)"><path fill="#007139" d="M 250.113281 124.742188 C 254.597656 105.917969 242.9375 103.226562 242.9375 103.226562 L 220.507812 102.332031 C 202.566406 105.917969 208.847656 125.640625 208.847656 125.640625 Z M 190.007812 35.09375 L 160.402344 35.09375 L 159.503906 61.988281 L 189.109375 62.882812 Z M 185.519531 147.15625 C 196.285156 152.535156 197.058594 185.707031 197.058594 185.707031 L 216.917969 186.054688 L 219.609375 147.15625 C 219.609375 147.15625 184.722656 146.753906 185.519531 147.15625 Z M 319.1875 148.949219 L 319.1875 157.019531 L 344.308594 157.019531 L 344.308594 148.054688 Z M 251.007812 65.574219 C 265.363281 23.4375 241.140625 25.230469 241.140625 25.230469 L 241.140625 16.265625 L 233.964844 16.265625 L 233.964844 25.75 C 233.832031 24.855469 232.539062 23.1875 222.761719 29.648438 C 210.640625 37.65625 219.609375 65.574219 219.609375 65.574219 Z M 227.683594 185.707031 L 264.414062 186.890625 L 264.464844 152.535156 L 231.273438 152.535156 Z M 145.574219 150.1875 C 123.710938 153.136719 120.03125 176.464844 120.03125 176.605469 L 177.367188 164.449219 C 176.53125 163.160156 175.605469 161.9375 174.59375 160.78125 C 173.582031 159.625 172.492188 158.542969 171.328125 157.542969 C 170.160156 156.542969 168.925781 155.632812 167.628906 154.808594 C 166.328125 153.984375 164.980469 153.257812 163.578125 152.628906 C 162.171875 152 160.734375 151.472656 159.253906 151.050781 C 157.777344 150.628906 156.273438 150.316406 154.75 150.109375 C 153.226562 149.902344 151.699219 149.804688 150.160156 149.816406 C 148.621094 149.832031 147.09375 149.953125 145.574219 150.1875 Z M 339.824219 97.847656 C 339.824219 97.847656 320.085938 107.710938 318.292969 107.710938 L 318.292969 127.433594 L 339.824219 127.433594 Z M 228.582031 261.015625 L 207.050781 258.324219 L 191.398438 273.683594 L 159.496094 274.140625 C 156.679688 268.644531 154.113281 263.703125 154.113281 263.703125 C 154.113281 263.703125 149.261719 271.40625 144.875 278.441406 L 141.070312 283.554688 L 105.902344 268.375 L 72.488281 270.875 L 50.957031 315.703125 L 37.5 374.871094 L 311.117188 372.183594 L 241.140625 246.671875 Z M 330.851562 53.023438 C 329.953125 53.023438 319.1875 54.816406 319.1875 54.816406 L 314.703125 46.746094 L 299.453125 51.230469 L 299.453125 45.851562 L 290.480469 49.4375 C 290.480469 49.4375 285.996094 51.230469 285.996094 50.332031 C 285.996094 49.4375 284.203125 43.160156 283.304688 44.058594 C 282.40625 44.953125 274.335938 44.058594 274.335938 44.058594 L 274.335938 62.882812 L 330.851562 62.882812 C 330.851562 62.882812 331.75 53.023438 330.851562 53.023438 Z M 158.734375 178.078125 L 160.277344 178.972656 C 160.277344 178.972656 162.539062 175.273438 166.144531 174.597656 C 168.164062 174.222656 170.269531 174.878906 172.421875 176.535156 L 173.519531 175.117188 C 170.960938 173.128906 168.367188 172.359375 165.820312 172.832031 C 161.425781 173.675781 158.839844 177.898438 158.734375 178.078125 Z M 134.511719 183.457031 L 136.054688 184.351562 C 136.054688 184.351562 138.316406 180.652344 141.921875 179.976562 C 143.941406 179.601562 146.050781 180.257812 148.203125 181.914062 L 149.296875 180.5 C 146.738281 178.507812 144.148438 177.738281 141.597656 178.210938 C 137.203125 179.054688 134.621094 183.277344 134.511719 183.457031 Z M 134.511719 183.457031 " fill-opacity="1" fill-rule="nonzero"/></g><path fill="#5d3a29" d="M 215.125 27.023438 L 216.023438 19.851562 L 208.847656 18.953125 L 209.742188 27.023438 C 209.742188 27.023438 206.15625 26.128906 199.875 31.507812 C 193.59375 36.886719 199.757812 65.574219 199.757812 65.574219 L 223.640625 65.574219 C 236.65625 25.230469 215.125 27.023438 215.125 27.023438 Z M 188.210938 26.128906 L 190.007812 17.160156 L 164.886719 17.160156 C 165.785156 18.953125 164.886719 26.128906 164.886719 26.128906 Z M 336.234375 19.851562 L 269.847656 22.539062 C 268.953125 23.4375 268.953125 41.367188 268.953125 41.367188 L 336.234375 41.367188 Z M 308.425781 81.710938 L 308.425781 96.054688 L 347.894531 96.054688 L 347.894531 81.710938 Z M 303.042969 125.640625 C 307.527344 111.296875 295.863281 105.019531 295.863281 105.019531 C 295.863281 105.019531 268.054688 107.351562 266.457031 107.710938 C 258.582031 109.503906 262.671875 127.433594 262.671875 127.433594 Z M 188.210938 102.332031 C 188.210938 102.332031 167.578125 101.246094 166.683594 101.433594 C 149.636719 105.019531 155.019531 124.742188 155.019531 124.742188 L 197.183594 123.847656 C 199.875 108.605469 188.210938 102.332031 188.210938 102.332031 Z M 190.902344 87.089844 L 163.992188 85.296875 L 163.992188 92.46875 L 192.699219 93.367188 Z M 245.628906 88.882812 L 216.917969 87.988281 L 216.917969 93.367188 L 244.730469 94.261719 Z M 296.761719 88.882812 L 268.953125 88.882812 L 268.953125 95.160156 L 295.863281 95.160156 Z M 226.789062 157.019531 L 269.847656 158.8125 L 269.847656 147.15625 L 227.683594 148.054688 Z M 336.234375 99.640625 L 321.878906 99.640625 L 321.878906 106.875 L 335.335938 105.917969 Z M 237.554688 168.671875 L 258.1875 169.570312 L 258.1875 163.292969 L 237.554688 161.5 C 236.65625 162.398438 237.554688 168.671875 237.554688 168.671875 Z M 238.449219 101.433594 L 224.097656 99.640625 L 224.097656 107.710938 L 238.449219 108.605469 Z M 281.609375 187.214844 L 311.589844 187.742188 L 312.011719 147.15625 L 284.203125 145.363281 C 285.097656 146.261719 281.609375 187.195312 281.609375 187.195312 Z M 338.027344 172.257812 C 338.925781 169.570312 335.335938 169.570312 335.335938 168.671875 C 335.335938 167.777344 330.851562 169.570312 329.953125 170.464844 C 329.058594 171.363281 328.160156 165.085938 329.058594 163.292969 C 329.953125 161.5 325.46875 158.8125 323.675781 158.8125 L 323.675781 157.914062 L 320.984375 184.808594 L 339.824219 186.601562 L 339.824219 181.222656 L 338.027344 178.535156 C 338.027344 178.535156 337.132812 174.949219 338.027344 172.257812 Z M 142.011719 183.914062 C 141.59375 183.914062 141.195312 183.992188 140.808594 184.152344 C 140.425781 184.3125 140.085938 184.539062 139.792969 184.832031 C 139.496094 185.128906 139.269531 185.464844 139.109375 185.851562 C 138.953125 186.234375 138.871094 186.636719 138.871094 187.050781 C 138.871094 187.46875 138.953125 187.867188 139.109375 188.253906 C 139.269531 188.636719 139.496094 188.976562 139.792969 189.269531 C 140.085938 189.566406 140.425781 189.792969 140.808594 189.949219 C 141.195312 190.109375 141.597656 190.191406 142.011719 190.191406 C 142.429688 190.191406 142.828125 190.109375 143.214844 189.949219 C 143.597656 189.792969 143.9375 189.566406 144.230469 189.269531 C 144.527344 188.976562 144.753906 188.636719 144.914062 188.253906 C 145.070312 187.867188 145.152344 187.46875 145.152344 187.050781 C 145.152344 186.636719 145.070312 186.234375 144.914062 185.851562 C 144.753906 185.464844 144.527344 185.128906 144.230469 184.832031 C 143.9375 184.539062 143.597656 184.3125 143.214844 184.152344 C 142.828125 183.992188 142.429688 183.914062 142.011719 183.914062 Z M 166.234375 179.429688 C 165.816406 179.429688 165.417969 179.511719 165.03125 179.671875 C 164.648438 179.828125 164.308594 180.054688 164.011719 180.351562 C 163.71875 180.644531 163.492188 180.984375 163.332031 181.367188 C 163.171875 181.753906 163.09375 182.152344 163.09375 182.570312 C 163.09375 182.984375 163.171875 183.386719 163.332031 183.769531 C 163.492188 184.15625 163.71875 184.492188 164.011719 184.789062 C 164.308594 185.082031 164.648438 185.308594 165.03125 185.46875 C 165.417969 185.628906 165.816406 185.707031 166.234375 185.707031 C 166.648438 185.707031 167.050781 185.628906 167.433594 185.46875 C 167.820312 185.308594 168.160156 185.082031 168.453125 184.789062 C 168.75 184.492188 168.976562 184.15625 169.132812 183.769531 C 169.292969 183.386719 169.375 182.984375 169.375 182.570312 C 169.375 182.152344 169.292969 181.753906 169.132812 181.367188 C 168.976562 180.984375 168.75 180.644531 168.453125 180.351562 C 168.160156 180.054688 167.820312 179.828125 167.433594 179.671875 C 167.050781 179.511719 166.648438 179.429688 166.234375 179.429688 Z M 146.625 194.402344 C 145.84375 193.953125 145.519531 193.777344 145.152344 193.777344 L 145.152344 195.570312 C 145.089844 195.578125 145.027344 195.578125 144.964844 195.570312 C 145.070312 195.570312 145.429688 195.8125 145.742188 195.988281 C 147.402344 196.929688 150.894531 198.902344 154.902344 198.902344 C 158.375 198.902344 162.222656 197.425781 165.625 192.519531 L 164.152344 191.5 C 157.757812 200.707031 149.636719 196.125 146.625 194.402344 Z M 146.625 194.402344 " fill-opacity="1" fill-rule="nonzero"/></svg>